# xmcd
# 
# Track frame offsets:
#     150
#     51223
#     85123
#     122040
#     185993
#     228023
# 
# Disc length: 3578
# 
# Revision: 3
# Processed by: cddbd v1.5.2PL0 Copyright (c) Steve Scherf et al.
# Submitted via: BonkEnc v1.0.8
# 
DISCID=480df806
DTITLE=Vladimir Ashkenazy - oncertos nos. 23 and 27
DYEAR=0
DGENRE=Classical
TTITLE0=Piano Concerto No.23 in A major, K.488: 1. Allegro
TTITLE1=Piano Concerto No.23 in A major, K.488: 2. Andante
TTITLE2=Piano Concerto No.23 in A major, K.488: 3. Presto
TTITLE3=Piano Concerto No.27 in B flat major, K.595: 1. Allegro
TTITLE4=Piano Concerto No.27 in B flat major, K.595: 2. Larghetto
TTITLE5=Piano Concerto No.27 in B flat major, K.595: 3. Allegro
EXTD=
EXTT0=
EXTT1=
EXTT2=
EXTT3=
EXTT4=
EXTT5=
PLAYORDER=
